G04 #@! TF.GenerationSoftware,KiCad,Pcbnew,(5.1.4)-1*
G04 #@! TF.CreationDate,2023-01-08T18:50:30-05:00*
G04 #@! TF.ProjectId,ThumbsUp,5468756d-6273-4557-902e-6b696361645f,rev?*
G04 #@! TF.SameCoordinates,Original*
G04 #@! TF.FileFunction,Copper,L1,Top*
G04 #@! TF.FilePolarity,Positive*
%FSLAX46Y46*%
G04 Gerber Fmt 4.6, Leading zero omitted, Abs format (unit mm)*
G04 Created by KiCad (PCBNEW (5.1.4)-1) date 2023-01-08 18:50:30*
%MOMM*%
%LPD*%
G04 APERTURE LIST*
%ADD10O,0.900000X1.700000*%
%ADD11O,0.900000X2.000000*%
%ADD12C,1.700000*%
%ADD13C,1.700000*%
%ADD14C,0.100000*%
%ADD15C,0.800000*%
%ADD16C,2.250000*%
%ADD17C,3.000000*%
%ADD18O,1.700000X1.700000*%
%ADD19R,1.700000X1.700000*%
%ADD20C,0.200000*%
%ADD21C,0.500000*%
G04 APERTURE END LIST*
D10*
X120240000Y-391200000D03*
X111600000Y-391200000D03*
D11*
X120240000Y-395370000D03*
X111600000Y-395370000D03*
D12*
X101993144Y-468685154D03*
D13*
X101993144Y-468685154D02*
X101993144Y-468685154D01*
D12*
X99539692Y-468027754D03*
D13*
X99539692Y-468027754D02*
X99539692Y-468027754D01*
D12*
X97086241Y-467370353D03*
D13*
X97086241Y-467370353D02*
X97086241Y-467370353D01*
D12*
X94632789Y-466712953D03*
D14*
G36*
X95233830Y-467753986D02*
G01*
X93591756Y-467313994D01*
X94031748Y-465671920D01*
X95673822Y-466111912D01*
X95233830Y-467753986D01*
X95233830Y-467753986D01*
G37*
D15*
X119624621Y-410612979D03*
X126624621Y-410612979D03*
D16*
X125824621Y-408087979D03*
D17*
X118424621Y-413012979D03*
D16*
X127724621Y-413137979D03*
D18*
X128876095Y-392698305D03*
X128876095Y-395238305D03*
X128876095Y-397778305D03*
D19*
X128876095Y-400318305D03*
D18*
X128940599Y-440774893D03*
X128940599Y-443314893D03*
X128940599Y-445854893D03*
D19*
X128940599Y-448394893D03*
D18*
X128068428Y-451181322D03*
X125528428Y-451181322D03*
X122988428Y-451181322D03*
D19*
X120448428Y-451181322D03*
D12*
X89627956Y-465271820D03*
D13*
X89627956Y-465271820D02*
X89627956Y-465271820D01*
D12*
X90285356Y-462818368D03*
D13*
X90285356Y-462818368D02*
X90285356Y-462818368D01*
D12*
X90942757Y-460364917D03*
D13*
X90942757Y-460364917D02*
X90942757Y-460364917D01*
D12*
X91600157Y-457911465D03*
D14*
G36*
X90559124Y-458512506D02*
G01*
X90999116Y-456870432D01*
X92641190Y-457310424D01*
X92201198Y-458952498D01*
X90559124Y-458512506D01*
X90559124Y-458512506D01*
G37*
D18*
X56532789Y-458812952D03*
X56532789Y-456272952D03*
X56532789Y-453732952D03*
D19*
X56532789Y-451192952D03*
D18*
X98376974Y-427470972D03*
X100916974Y-427470972D03*
X103456974Y-427470972D03*
D19*
X105996974Y-427470972D03*
D18*
X98509278Y-392368375D03*
X101049278Y-392368375D03*
X103589278Y-392368375D03*
D19*
X106129278Y-392368375D03*
D18*
X98534161Y-409935202D03*
X101074161Y-409935202D03*
X103614161Y-409935202D03*
D19*
X106154161Y-409935202D03*
D12*
X118693145Y-473085153D03*
D13*
X118693145Y-473085153D02*
X118693145Y-473085153D01*
D12*
X116239693Y-472427753D03*
D13*
X116239693Y-472427753D02*
X116239693Y-472427753D01*
D12*
X113786242Y-471770352D03*
D13*
X113786242Y-471770352D02*
X113786242Y-471770352D01*
D12*
X111332790Y-471112952D03*
D14*
G36*
X110731749Y-470071919D02*
G01*
X112373823Y-470511911D01*
X111933831Y-472153985D01*
X110291757Y-471713993D01*
X110731749Y-470071919D01*
X110731749Y-470071919D01*
G37*
D12*
X127932789Y-471912952D03*
D13*
X127932789Y-471912952D02*
X127932789Y-471912952D01*
D12*
X128590189Y-469459500D03*
D13*
X128590189Y-469459500D02*
X128590189Y-469459500D01*
D12*
X129247590Y-467006049D03*
D13*
X129247590Y-467006049D02*
X129247590Y-467006049D01*
D12*
X129904990Y-464552597D03*
D14*
G36*
X128863957Y-465153638D02*
G01*
X129303949Y-463511564D01*
X130946023Y-463951556D01*
X130506031Y-465593630D01*
X128863957Y-465153638D01*
X128863957Y-465153638D01*
G37*
D15*
X108806572Y-444790814D03*
X115782000Y-397586000D03*
X116764443Y-397296714D03*
X109939994Y-444830004D03*
X116936663Y-466420007D03*
X107622081Y-461501191D03*
X107787880Y-464802836D03*
X107825246Y-451512106D03*
X107966595Y-463325603D03*
X106854545Y-451428132D03*
X107146000Y-463880000D03*
X119850000Y-464775000D03*
X114700000Y-464175000D03*
X121500000Y-462250000D03*
X120125000Y-457925000D03*
X108570000Y-468630000D03*
X104040000Y-455960000D03*
X98030000Y-463070000D03*
X115560000Y-468670000D03*
X96490000Y-463070000D03*
X114766000Y-453974000D03*
X98757790Y-440082790D03*
X104163969Y-465000283D03*
X104040000Y-451630000D03*
X112226000Y-408508000D03*
X107654000Y-441528000D03*
X119899692Y-466395463D03*
X99800000Y-463835000D03*
X118068356Y-463081644D03*
X115611413Y-467744415D03*
X114825000Y-455244000D03*
X106825000Y-448116990D03*
X107908000Y-467182000D03*
X109624021Y-457092000D03*
X105083989Y-464130749D03*
X117560000Y-465552000D03*
X85810000Y-460070000D03*
D20*
X108845720Y-444829962D02*
X108806572Y-444790814D01*
X109085542Y-444829962D02*
X108845720Y-444829962D01*
X117814000Y-399618000D02*
X116181999Y-397985999D01*
X111210000Y-414903538D02*
X117814000Y-408299538D01*
X111210000Y-442387386D02*
X111210000Y-414903538D01*
X108806572Y-444790814D02*
X111210000Y-442387386D01*
X116181999Y-397985999D02*
X115782000Y-397586000D01*
X117814000Y-408299538D02*
X117814000Y-399618000D01*
X111537011Y-443232987D02*
X110339993Y-444430005D01*
X110339993Y-444430005D02*
X109939994Y-444830004D01*
X111537011Y-415038989D02*
X111537011Y-443232987D01*
X118141011Y-398673282D02*
X118141011Y-408434990D01*
X116764443Y-397296714D02*
X118141011Y-398673282D01*
X118141011Y-408434990D02*
X111537011Y-415038989D01*
D21*
X116936663Y-466420007D02*
X109405051Y-466420007D01*
X106810873Y-465202835D02*
X107387881Y-465202835D01*
X105860999Y-464252961D02*
X106810873Y-465202835D01*
X105860999Y-463262273D02*
X105860999Y-464252961D01*
X109405051Y-466420007D02*
X108187879Y-465202835D01*
X107622081Y-461501191D02*
X105860999Y-463262273D01*
X107387881Y-465202835D02*
X107787880Y-464802836D01*
X108187879Y-465202835D02*
X107787880Y-464802836D01*
D20*
X108670000Y-452356860D02*
X108670000Y-462622198D01*
X108366594Y-462925604D02*
X107966595Y-463325603D01*
X107825246Y-451512106D02*
X108670000Y-452356860D01*
X108670000Y-462622198D02*
X108366594Y-462925604D01*
X108342989Y-462046170D02*
X107146000Y-463243159D01*
X106854545Y-451428132D02*
X108342989Y-452916576D01*
X107146000Y-463314315D02*
X107146000Y-463880000D01*
X107146000Y-463243159D02*
X107146000Y-463314315D01*
X108342989Y-452916576D02*
X108342989Y-462046170D01*
D21*
X121500000Y-463125000D02*
X119850000Y-464775000D01*
X115300000Y-464775000D02*
X114700000Y-464175000D01*
X121500000Y-462250000D02*
X121500000Y-463125000D01*
X121500000Y-459325000D02*
X121500000Y-462250000D01*
X120125000Y-457925000D02*
X121500000Y-459300000D01*
X117775000Y-464775000D02*
X115300000Y-464775000D01*
X119850000Y-464775000D02*
X117775000Y-464775000D01*
X115520000Y-468630000D02*
X115560000Y-468670000D01*
X108570000Y-468630000D02*
X115520000Y-468630000D01*
X98030000Y-456820000D02*
X98030000Y-463070000D01*
X104040000Y-455960000D02*
X98890000Y-455960000D01*
X98890000Y-455960000D02*
X98030000Y-456820000D01*
X98030000Y-463070000D02*
X96490000Y-463070000D01*
X115331685Y-453974000D02*
X114766000Y-453974000D01*
X116174000Y-453974000D02*
X115331685Y-453974000D01*
X120125000Y-457925000D02*
X116174000Y-453974000D01*
X104040000Y-455960000D02*
X104040000Y-449752026D01*
X107369987Y-447339987D02*
X108524001Y-448494001D01*
X106452039Y-447339987D02*
X107369987Y-447339987D01*
X98757790Y-440082790D02*
X100112790Y-440082790D01*
X100112790Y-440082790D02*
X108524001Y-448494001D01*
X104040000Y-449752026D02*
X106452039Y-447339987D01*
X108524001Y-448494001D02*
X110701992Y-450671992D01*
X114004000Y-453974000D02*
X111101991Y-451071991D01*
X114766000Y-453974000D02*
X114004000Y-453974000D01*
X111101991Y-451071991D02*
X110701992Y-450671992D01*
X104563968Y-465400282D02*
X104163969Y-465000283D01*
X108570000Y-468630000D02*
X107793686Y-468630000D01*
X107793686Y-468630000D02*
X104563968Y-465400282D01*
X109208989Y-439973011D02*
X108053999Y-441128001D01*
X112226000Y-408508000D02*
X109208989Y-411525011D01*
X108053999Y-441128001D02*
X107654000Y-441528000D01*
X109208989Y-411525011D02*
X109208989Y-439973011D01*
D20*
X118424621Y-413012979D02*
X118424621Y-454584621D01*
X118424621Y-454584621D02*
X122386000Y-458546000D01*
X122386000Y-463909155D02*
X120299691Y-465995464D01*
X122386000Y-458546000D02*
X122386000Y-463909155D01*
X120299691Y-465995464D02*
X119899692Y-466395463D01*
D21*
X104875000Y-453375000D02*
X104900000Y-453400000D01*
X115224999Y-455643999D02*
X114825000Y-455244000D01*
X118068356Y-463081644D02*
X118068356Y-458487356D01*
X118068356Y-458487356D02*
X115224999Y-455643999D01*
X106825000Y-448690685D02*
X106825000Y-448116990D01*
X104900000Y-453400000D02*
X104900000Y-450615685D01*
X104900000Y-450615685D02*
X106825000Y-448690685D01*
X106825000Y-448116990D02*
X106825000Y-448116988D01*
X106825000Y-448682673D02*
X106825000Y-448116988D01*
X114825000Y-455244000D02*
X113386327Y-455244000D01*
X108473685Y-467182000D02*
X107908000Y-467182000D01*
X108981685Y-467690000D02*
X108473685Y-467182000D01*
X115611413Y-467744415D02*
X115556998Y-467690000D01*
X115556998Y-467690000D02*
X108981685Y-467690000D01*
X113386327Y-455244000D02*
X110520163Y-452377837D01*
X110520163Y-452377837D02*
X106825000Y-448682673D01*
X109624021Y-456526315D02*
X109624021Y-457092000D01*
X110520163Y-452377837D02*
X109624021Y-453273979D01*
X109624021Y-453273979D02*
X109624021Y-456526315D01*
X105083989Y-464696434D02*
X105083989Y-464130749D01*
X107908000Y-467182000D02*
X107342315Y-467182000D01*
X107342315Y-467182000D02*
X105083989Y-464923674D01*
X105083989Y-464923674D02*
X105083989Y-464696434D01*
X105083989Y-453583989D02*
X105083989Y-463565064D01*
X105083989Y-463565064D02*
X105083989Y-464130749D01*
X104900000Y-453400000D02*
X105083989Y-453583989D01*
X99800000Y-463835000D02*
X104788240Y-463835000D01*
X104788240Y-463835000D02*
X105083989Y-464130749D01*
D20*
X85810000Y-457530000D02*
X85810000Y-460070000D01*
X93176000Y-456006000D02*
X87334000Y-456006000D01*
X94192000Y-462864000D02*
X94192000Y-457022000D01*
X96986000Y-465658000D02*
X94192000Y-462864000D01*
X103336000Y-465658000D02*
X96986000Y-465658000D01*
X117560000Y-465658000D02*
X118576000Y-466674000D01*
X117560000Y-465552000D02*
X117560000Y-465658000D01*
X118576000Y-466674000D02*
X118576000Y-468960000D01*
X87334000Y-456006000D02*
X85810000Y-457530000D01*
X118576000Y-468960000D02*
X118068000Y-469468000D01*
X118068000Y-469468000D02*
X107146000Y-469468000D01*
X94192000Y-457022000D02*
X93176000Y-456006000D01*
X107146000Y-469468000D02*
X103336000Y-465658000D01*
M02*
